<svg xmlns="http://www.w3.org/2000/svg" viewBox="0 0 16 17" class="design-iconfont">
  <g fill="#7087A8" fill-rule="nonzero">
    <path d="M8,0 C10.9466667,0 13.6133333,1.66625 16,5 C13.6133333,8.33375 10.9466667,10 8,10 C5.05333334,10 2.38666666,8.33375 0,5 C2.38666666,1.66625 5.05333334,0 8,0 L8,0 Z M8,1.25000001 C5.73733333,1.25000001 3.60266667,2.36875001 1.33333333,5 C3.51466666,7.52875 5.552,8.65 8,8.75000001 C10.264,8.75000001 12.3986667,7.63124999 14.6666667,5 C12.4866667,2.47125 10.4493333,1.35 8,1.25000001 Z" transform="translate(0 3.3309)"/>
    <path d="M8,2.33333334 C9.47275933,2.33333334 10.6666667,3.52724067 10.6666667,5 C10.6666667,6.47275933 9.47275933,7.66666666 8,7.66666666 C6.52724067,7.66666666 5.33333334,6.47275933 5.33333334,5 C5.33333334,3.52724067 6.52724067,2.33333334 8,2.33333334 L8,2.33333334 Z" transform="translate(0 3.3309)"/>
  </g>
</svg>
